<?xml version="1.0" encoding="UTF-8"?>
<!DOCTYPE svg PUBLIC "-//W3C//DTD SVG 1.1//EN" "http://www.w3.org/Graphics/SVG/1.1/DTD/svg11.dtd">
<!-- Creator: CorelDRAW X5 -->
<svg xmlns="http://www.w3.org/2000/svg" xml:space="preserve" width="76.0971mm" height="79.1671mm" style="shape-rendering:geometricPrecision; text-rendering:geometricPrecision; image-rendering:optimizeQuality; fill-rule:evenodd; clip-rule:evenodd"
viewBox="0 0 10713 11145"
 xmlns:xlink="http://www.w3.org/1999/xlink">
 <defs>
  <style type="text/css">
   <![CDATA[
    .fil29 {fill:black;fill-rule:nonzero}
    .fil10 {fill:#2A2522;fill-rule:nonzero}
    .fil28 {fill:#32A043;fill-rule:nonzero}
    .fil11 {fill:#359830;fill-rule:nonzero}
    .fil18 {fill:#B0B0B0;fill-rule:nonzero}
    .fil27 {fill:#C8191E;fill-rule:nonzero}
    .fil12 {fill:#C90C0F;fill-rule:nonzero}
    .fil9 {fill:#E6262A;fill-rule:nonzero}
    .fil5 {fill:url(#id82)}
    .fil0 {fill:url(#id83)}
    .fil7 {fill:url(#id84)}
    .fil21 {fill:url(#id85)}
    .fil22 {fill:url(#id86)}
    .fil1 {fill:url(#id87)}
    .fil15 {fill:url(#id88)}
    .fil16 {fill:url(#id89)}
    .fil3 {fill:url(#id90)}
    .fil8 {fill:url(#id91)}
    .fil2 {fill:url(#id92)}
    .fil23 {fill:url(#id93)}
    .fil25 {fill:url(#id94)}
    .fil24 {fill:url(#id95)}
    .fil14 {fill:url(#id96)}
    .fil4 {fill:url(#id97)}
    .fil6 {fill:url(#id98)}
    .fil26 {fill:url(#id99)}
    .fil19 {fill:url(#id100)}
    .fil17 {fill:url(#id101)}
    .fil20 {fill:url(#id102)}
    .fil13 {fill:url(#id103)}
   ]]>
  </style>
  <mask id="id0">
  <linearGradient id="id1" gradientUnits="userSpaceOnUse" x1="399.589" y1="-17124.1" x2="399.589" y2="-26978.7">
   <stop offset="0" style="stop-opacity:0; stop-color:white"/>
   <stop offset="1" style="stop-opacity:1; stop-color:white"/>
  </linearGradient>
   <rect style="fill:url(#id1)" x="-4509" y="-26979" width="9818" height="9855"/>
  </mask>
  <mask id="id2">
  <linearGradient id="id3" gradientUnits="userSpaceOnUse" x1="399.589" y1="-17125" x2="399.589" y2="-26979.6">
   <stop offset="0" style="stop-opacity:0; stop-color:white"/>
   <stop offset="1" style="stop-opacity:1; stop-color:white"/>
  </linearGradient>
   <rect style="fill:url(#id3)" x="-4509" y="-26980" width="9818" height="9855"/>
  </mask>
  <mask id="id4">
  <linearGradient id="id5" gradientUnits="userSpaceOnUse" x1="399.646" y1="-17125" x2="399.646" y2="-26979.6">
   <stop offset="0" style="stop-opacity:0; stop-color:white"/>
   <stop offset="1" style="stop-opacity:1; stop-color:white"/>
  </linearGradient>
   <rect style="fill:url(#id5)" x="-4509" y="-26980" width="9817" height="9855"/>
  </mask>
  <mask id="id6">
  <linearGradient id="id7" gradientUnits="userSpaceOnUse" x1="-252.291" y1="-18431.4" x2="-252.291" y2="-26979.6">
   <stop offset="0" style="stop-opacity:0; stop-color:white"/>
   <stop offset="1" style="stop-opacity:1; stop-color:white"/>
  </linearGradient>
   <rect style="fill:url(#id7)" x="-4509" y="-26980" width="8514" height="8549"/>
  </mask>
  <mask id="id8">
  <linearGradient id="id9" gradientUnits="userSpaceOnUse" x1="17225.6" y1="-21497.4" x2="17225.6" y2="-26978.7">
   <stop offset="0" style="stop-opacity:0; stop-color:white"/>
   <stop offset="1" style="stop-opacity:1; stop-color:white"/>
  </linearGradient>
   <rect style="fill:url(#id9)" x="14496" y="-26979" width="5459" height="5482"/>
  </mask>
  <mask id="id10">
  <linearGradient id="id11" gradientUnits="userSpaceOnUse" x1="399.547" y1="-17125" x2="399.547" y2="-26979.6">
   <stop offset="0" style="stop-opacity:0; stop-color:white"/>
   <stop offset="1" style="stop-opacity:1; stop-color:white"/>
  </linearGradient>
   <rect style="fill:url(#id11)" x="-4509" y="-26980" width="9817" height="9855"/>
  </mask>
  <mask id="id12">
  <linearGradient id="id13" gradientUnits="userSpaceOnUse" x1="17225.6" y1="-21498.4" x2="17225.6" y2="-26979.5">
   <stop offset="0" style="stop-opacity:0; stop-color:white"/>
   <stop offset="1" style="stop-opacity:1; stop-color:white"/>
  </linearGradient>
   <rect style="fill:url(#id13)" x="14496" y="-26980" width="5459" height="5482"/>
  </mask>
  <mask id="id14">
  <linearGradient id="id15" gradientUnits="userSpaceOnUse" x1="399.589" y1="-17125" x2="399.589" y2="-26979.5">
   <stop offset="0" style="stop-opacity:0; stop-color:white"/>
   <stop offset="1" style="stop-opacity:1; stop-color:white"/>
  </linearGradient>
   <rect style="fill:url(#id15)" x="-4509" y="-26980" width="9818" height="9855"/>
  </mask>
  <mask id="id16">
  <linearGradient id="id17" gradientUnits="userSpaceOnUse" x1="399.646" y1="-17125" x2="399.646" y2="-26979.5">
   <stop offset="0" style="stop-opacity:0; stop-color:white"/>
   <stop offset="1" style="stop-opacity:1; stop-color:white"/>
  </linearGradient>
   <rect style="fill:url(#id17)" x="-4509" y="-26980" width="9817" height="9855"/>
  </mask>
  <mask id="id18">
  <linearGradient id="id19" gradientUnits="userSpaceOnUse" x1="399.589" y1="-17125" x2="399.589" y2="-26979.5">
   <stop offset="0" style="stop-opacity:0; stop-color:white"/>
   <stop offset="1" style="stop-opacity:1; stop-color:white"/>
  </linearGradient>
   <rect style="fill:url(#id19)" x="-4509" y="-26980" width="9818" height="9855"/>
  </mask>
  <mask id="id20">
  <linearGradient id="id21" gradientUnits="userSpaceOnUse" x1="17225.6" y1="-21498.4" x2="17225.6" y2="-26979.5">
   <stop offset="0" style="stop-opacity:0; stop-color:white"/>
   <stop offset="1" style="stop-opacity:1; stop-color:white"/>
  </linearGradient>
   <rect style="fill:url(#id21)" x="14496" y="-26980" width="5459" height="5482"/>
  </mask>
  <mask id="id22">
  <linearGradient id="id23" gradientUnits="userSpaceOnUse" x1="17225.6" y1="-21498.4" x2="17225.6" y2="-26979.5">
   <stop offset="0" style="stop-opacity:0; stop-color:white"/>
   <stop offset="1" style="stop-opacity:1; stop-color:white"/>
  </linearGradient>
   <rect style="fill:url(#id23)" x="14496" y="-26980" width="5459" height="5482"/>
  </mask>
  <mask id="id24">
  <linearGradient id="id25" gradientUnits="userSpaceOnUse" x1="17225.6" y1="-21498.4" x2="17225.6" y2="-26979.5">
   <stop offset="0" style="stop-opacity:0; stop-color:white"/>
   <stop offset="1" style="stop-opacity:1; stop-color:white"/>
  </linearGradient>
   <rect style="fill:url(#id25)" x="14496" y="-26980" width="5459" height="5482"/>
  </mask>
  <mask id="id26">
  <linearGradient id="id27" gradientUnits="userSpaceOnUse" x1="399.589" y1="-17125" x2="399.589" y2="-26979.5">
   <stop offset="0" style="stop-opacity:0; stop-color:white"/>
   <stop offset="1" style="stop-opacity:1; stop-color:white"/>
  </linearGradient>
   <rect style="fill:url(#id27)" x="-4509" y="-26980" width="9818" height="9855"/>
  </mask>
  <mask id="id28">
  <linearGradient id="id29" gradientUnits="userSpaceOnUse" x1="17225.7" y1="-21498.4" x2="17225.7" y2="-26979.6">
   <stop offset="0" style="stop-opacity:0; stop-color:white"/>
   <stop offset="1" style="stop-opacity:1; stop-color:white"/>
  </linearGradient>
   <rect style="fill:url(#id29)" x="14496" y="-26980" width="5459" height="5482"/>
  </mask>
  <mask id="id30">
  <linearGradient id="id31" gradientUnits="userSpaceOnUse" x1="17225.6" y1="-21498.4" x2="17225.6" y2="-26979.5">
   <stop offset="0" style="stop-opacity:0; stop-color:white"/>
   <stop offset="1" style="stop-opacity:1; stop-color:white"/>
  </linearGradient>
   <rect style="fill:url(#id31)" x="14496" y="-26980" width="5459" height="5482"/>
  </mask>
  <mask id="id32">
  <linearGradient id="id33" gradientUnits="userSpaceOnUse" x1="17225.6" y1="-21498.4" x2="17225.6" y2="-26979.5">
   <stop offset="0" style="stop-opacity:0; stop-color:white"/>
   <stop offset="1" style="stop-opacity:1; stop-color:white"/>
  </linearGradient>
   <rect style="fill:url(#id33)" x="14496" y="-26980" width="5459" height="5482"/>
  </mask>
  <mask id="id34">
  <linearGradient id="id35" gradientUnits="userSpaceOnUse" x1="399.589" y1="-17125" x2="399.589" y2="-26979.6">
   <stop offset="0" style="stop-opacity:0; stop-color:white"/>
   <stop offset="1" style="stop-opacity:1; stop-color:white"/>
  </linearGradient>
   <rect style="fill:url(#id35)" x="-4509" y="-26980" width="9818" height="9855"/>
  </mask>
  <mask id="id36">
  <linearGradient id="id37" gradientUnits="userSpaceOnUse" x1="17225.6" y1="-21498.4" x2="17225.6" y2="-26979.5">
   <stop offset="0" style="stop-opacity:0; stop-color:white"/>
   <stop offset="1" style="stop-opacity:1; stop-color:white"/>
  </linearGradient>
   <rect style="fill:url(#id37)" x="14496" y="-26980" width="5459" height="5482"/>
  </mask>
  <mask id="id38">
  <linearGradient id="id39" gradientUnits="userSpaceOnUse" x1="17225.6" y1="-21498.4" x2="17225.6" y2="-26979.6">
   <stop offset="0" style="stop-opacity:0; stop-color:white"/>
   <stop offset="1" style="stop-opacity:1; stop-color:white"/>
  </linearGradient>
   <rect style="fill:url(#id39)" x="14496" y="-26980" width="5459" height="5482"/>
  </mask>
  <mask id="id40">
  <linearGradient id="id41" gradientUnits="userSpaceOnUse" x1="17225.6" y1="-21498.4" x2="17225.6" y2="-26979.5">
   <stop offset="0" style="stop-opacity:0; stop-color:white"/>
   <stop offset="1" style="stop-opacity:1; stop-color:white"/>
  </linearGradient>
   <rect style="fill:url(#id41)" x="14496" y="-26980" width="5459" height="5482"/>
  </mask>
  <mask id="id42">
  <linearGradient id="id43" gradientUnits="userSpaceOnUse" x1="399.589" y1="-17125" x2="399.589" y2="-26979.5">
   <stop offset="0" style="stop-opacity:0; stop-color:white"/>
   <stop offset="1" style="stop-opacity:1; stop-color:white"/>
  </linearGradient>
   <rect style="fill:url(#id43)" x="-4509" y="-26980" width="9818" height="9855"/>
  </mask>
  <mask id="id44">
  <linearGradient id="id45" gradientUnits="userSpaceOnUse" x1="399.589" y1="-17125.1" x2="399.589" y2="-26979.6">
   <stop offset="0" style="stop-opacity:0; stop-color:white"/>
   <stop offset="1" style="stop-opacity:1; stop-color:white"/>
  </linearGradient>
   <rect style="fill:url(#id45)" x="-4509" y="-26980" width="9818" height="9855"/>
  </mask>
  <mask id="id46">
  <linearGradient id="id47" gradientUnits="userSpaceOnUse" x1="399.589" y1="-17125.1" x2="399.589" y2="-26979.6">
   <stop offset="0" style="stop-opacity:0; stop-color:white"/>
   <stop offset="1" style="stop-opacity:1; stop-color:white"/>
  </linearGradient>
   <rect style="fill:url(#id47)" x="-4509" y="-26980" width="9818" height="9855"/>
  </mask>
  <mask id="id48">
  <linearGradient id="id49" gradientUnits="userSpaceOnUse" x1="17225.7" y1="-21498.4" x2="17225.7" y2="-26979.5">
   <stop offset="0" style="stop-opacity:0; stop-color:white"/>
   <stop offset="1" style="stop-opacity:1; stop-color:white"/>
  </linearGradient>
   <rect style="fill:url(#id49)" x="14496" y="-26980" width="5459" height="5482"/>
  </mask>
  <mask id="id50">
  <linearGradient id="id51" gradientUnits="userSpaceOnUse" x1="399.589" y1="-17125" x2="399.589" y2="-26979.5">
   <stop offset="0" style="stop-opacity:0; stop-color:white"/>
   <stop offset="1" style="stop-opacity:1; stop-color:white"/>
  </linearGradient>
   <rect style="fill:url(#id51)" x="-4509" y="-26980" width="9818" height="9855"/>
  </mask>
  <mask id="id52">
  <linearGradient id="id53" gradientUnits="userSpaceOnUse" x1="17225.6" y1="-21498.4" x2="17225.6" y2="-26979.5">
   <stop offset="0" style="stop-opacity:0; stop-color:white"/>
   <stop offset="1" style="stop-opacity:1; stop-color:white"/>
  </linearGradient>
   <rect style="fill:url(#id53)" x="14496" y="-26980" width="5459" height="5482"/>
  </mask>
  <mask id="id54">
  <linearGradient id="id55" gradientUnits="userSpaceOnUse" x1="399.589" y1="-17125.1" x2="399.589" y2="-26979.6">
   <stop offset="0" style="stop-opacity:0; stop-color:white"/>
   <stop offset="1" style="stop-opacity:1; stop-color:white"/>
  </linearGradient>
   <rect style="fill:url(#id55)" x="-4509" y="-26980" width="9818" height="9855"/>
  </mask>
  <mask id="id56">
  <linearGradient id="id57" gradientUnits="userSpaceOnUse" x1="17225.6" y1="-21498.5" x2="17225.6" y2="-26979.6">
   <stop offset="0" style="stop-opacity:0; stop-color:white"/>
   <stop offset="1" style="stop-opacity:1; stop-color:white"/>
  </linearGradient>
   <rect style="fill:url(#id57)" x="14496" y="-26980" width="5459" height="5482"/>
  </mask>
  <mask id="id58">
  <linearGradient id="id59" gradientUnits="userSpaceOnUse" x1="399.589" y1="-17125" x2="399.589" y2="-26979.5">
   <stop offset="0" style="stop-opacity:0; stop-color:white"/>
   <stop offset="1" style="stop-opacity:1; stop-color:white"/>
  </linearGradient>
   <rect style="fill:url(#id59)" x="-4509" y="-26980" width="9818" height="9855"/>
  </mask>
  <mask id="id60">
  <linearGradient id="id61" gradientUnits="userSpaceOnUse" x1="17225.7" y1="-21498.4" x2="17225.7" y2="-26979.5">
   <stop offset="0" style="stop-opacity:0; stop-color:white"/>
   <stop offset="1" style="stop-opacity:1; stop-color:white"/>
  </linearGradient>
   <rect style="fill:url(#id61)" x="14496" y="-26980" width="5459" height="5482"/>
  </mask>
  <mask id="id62">
  <linearGradient id="id63" gradientUnits="userSpaceOnUse" x1="399.589" y1="-17125" x2="399.589" y2="-26979.6">
   <stop offset="0" style="stop-opacity:0; stop-color:white"/>
   <stop offset="1" style="stop-opacity:1; stop-color:white"/>
  </linearGradient>
   <rect style="fill:url(#id63)" x="-4509" y="-26980" width="9818" height="9855"/>
  </mask>
  <mask id="id64">
  <linearGradient id="id65" gradientUnits="userSpaceOnUse" x1="399.589" y1="-17125" x2="399.589" y2="-26979.5">
   <stop offset="0" style="stop-opacity:0; stop-color:white"/>
   <stop offset="1" style="stop-opacity:1; stop-color:white"/>
  </linearGradient>
   <rect style="fill:url(#id65)" x="-4509" y="-26980" width="9818" height="9855"/>
  </mask>
  <mask id="id66">
  <linearGradient id="id67" gradientUnits="userSpaceOnUse" x1="399.688" y1="-17125" x2="399.688" y2="-26979.5">
   <stop offset="0" style="stop-opacity:0; stop-color:white"/>
   <stop offset="1" style="stop-opacity:1; stop-color:white"/>
  </linearGradient>
   <rect style="fill:url(#id67)" x="-4509" y="-26980" width="9818" height="9855"/>
  </mask>
  <mask id="id68">
  <linearGradient id="id69" gradientUnits="userSpaceOnUse" x1="399.589" y1="-17125" x2="399.589" y2="-26979.5">
   <stop offset="0" style="stop-opacity:0; stop-color:white"/>
   <stop offset="1" style="stop-opacity:1; stop-color:white"/>
  </linearGradient>
   <rect style="fill:url(#id69)" x="-4509" y="-26980" width="9818" height="9855"/>
  </mask>
  <mask id="id70">
  <linearGradient id="id71" gradientUnits="userSpaceOnUse" x1="17225.6" y1="-21498.5" x2="17225.6" y2="-26979.6">
   <stop offset="0" style="stop-opacity:0; stop-color:white"/>
   <stop offset="1" style="stop-opacity:1; stop-color:white"/>
  </linearGradient>
   <rect style="fill:url(#id71)" x="14496" y="-26980" width="5459" height="5482"/>
  </mask>
  <mask id="id72">
  <linearGradient id="id73" gradientUnits="userSpaceOnUse" x1="17270.9" y1="-7327.6" x2="17270.9" y2="-12900.3">
   <stop offset="0" style="stop-opacity:0; stop-color:white"/>
   <stop offset="1" style="stop-opacity:1; stop-color:white"/>
  </linearGradient>
   <rect style="fill:url(#id73)" x="14495" y="-12901" width="5551" height="5573"/>
  </mask>
  <mask id="id74">
  <linearGradient id="id75" gradientUnits="userSpaceOnUse" x1="17224.8" y1="-21498.4" x2="17224.8" y2="-26979.6">
   <stop offset="0" style="stop-opacity:0; stop-color:white"/>
   <stop offset="1" style="stop-opacity:1; stop-color:white"/>
  </linearGradient>
   <rect style="fill:url(#id75)" x="14495" y="-26980" width="5459" height="5482"/>
  </mask>
  <mask id="id76">
  <linearGradient id="id77" gradientUnits="userSpaceOnUse" x1="17225.6" y1="-21498.4" x2="17225.6" y2="-26979.6">
   <stop offset="0" style="stop-opacity:0; stop-color:white"/>
   <stop offset="1" style="stop-opacity:1; stop-color:white"/>
  </linearGradient>
   <rect style="fill:url(#id77)" x="14496" y="-26980" width="5459" height="5482"/>
  </mask>
  <mask id="id78">
  <linearGradient id="id79" gradientUnits="userSpaceOnUse" x1="399.589" y1="-17125" x2="399.589" y2="-26979.6">
   <stop offset="0" style="stop-opacity:0; stop-color:white"/>
   <stop offset="1" style="stop-opacity:1; stop-color:white"/>
  </linearGradient>
   <rect style="fill:url(#id79)" x="-4509" y="-26980" width="9818" height="9855"/>
  </mask>
  <mask id="id80">
  <linearGradient id="id81" gradientUnits="userSpaceOnUse" x1="17225.6" y1="-21498.4" x2="17225.6" y2="-26979.6">
   <stop offset="0" style="stop-opacity:0; stop-color:white"/>
   <stop offset="1" style="stop-opacity:1; stop-color:white"/>
  </linearGradient>
   <rect style="fill:url(#id81)" x="14496" y="-26980" width="5459" height="5482"/>
  </mask>
  <linearGradient id="id82" gradientUnits="userSpaceOnUse" x1="399.547" y1="-17125" x2="399.547" y2="-26979.6">
   <stop offset="0" style="stop-color:white"/>
   <stop offset="1" style="stop-color:#E3E3E3"/>
  </linearGradient>
  <linearGradient id="id83" gradientUnits="userSpaceOnUse" xlink:href="#id82" x1="399.589" y1="-17124.1" x2="399.589" y2="-26978.7">
  </linearGradient>
  <linearGradient id="id84" gradientUnits="userSpaceOnUse" xlink:href="#id82" x1="399.589" y1="-17125" x2="399.589" y2="-26979.5">
  </linearGradient>
  <linearGradient id="id85" gradientUnits="userSpaceOnUse" xlink:href="#id82" x1="399.589" y1="-17125" x2="399.589" y2="-26979.6">
  </linearGradient>
  <linearGradient id="id86" gradientUnits="userSpaceOnUse" xlink:href="#id82" x1="399.589" y1="-17125" x2="399.589" y2="-26979.5">
  </linearGradient>
  <linearGradient id="id87" gradientUnits="userSpaceOnUse" xlink:href="#id82" x1="399.589" y1="-17125" x2="399.589" y2="-26979.6">
  </linearGradient>
  <linearGradient id="id88" gradientUnits="userSpaceOnUse" xlink:href="#id82" x1="399.589" y1="-17125.1" x2="399.589" y2="-26979.6">
  </linearGradient>
  <linearGradient id="id89" gradientUnits="userSpaceOnUse" xlink:href="#id82" x1="399.589" y1="-17125.1" x2="399.589" y2="-26979.6">
  </linearGradient>
  <linearGradient id="id90" gradientUnits="userSpaceOnUse" xlink:href="#id82" x1="-252.291" y1="-18431.4" x2="-252.291" y2="-26979.6">
  </linearGradient>
  <linearGradient id="id91" gradientUnits="userSpaceOnUse" xlink:href="#id82" x1="399.646" y1="-17125" x2="399.646" y2="-26979.5">
  </linearGradient>
  <linearGradient id="id92" gradientUnits="userSpaceOnUse" xlink:href="#id82" x1="399.646" y1="-17125" x2="399.646" y2="-26979.6">
  </linearGradient>
  <linearGradient id="id93" gradientUnits="userSpaceOnUse" xlink:href="#id82" x1="399.688" y1="-17125" x2="399.688" y2="-26979.5">
  </linearGradient>
  <linearGradient id="id94" gradientUnits="userSpaceOnUse" xlink:href="#id82" x1="17224.8" y1="-21498.4" x2="17224.8" y2="-26979.6">
  </linearGradient>
  <linearGradient id="id95" gradientUnits="userSpaceOnUse" xlink:href="#id82" x1="17270.9" y1="-7327.6" x2="17270.9" y2="-12900.3">
  </linearGradient>
  <linearGradient id="id96" gradientUnits="userSpaceOnUse" xlink:href="#id82" x1="17225.6" y1="-21498.4" x2="17225.6" y2="-26979.6">
  </linearGradient>
  <linearGradient id="id97" gradientUnits="userSpaceOnUse" xlink:href="#id82" x1="17225.6" y1="-21497.4" x2="17225.6" y2="-26978.7">
  </linearGradient>
  <linearGradient id="id98" gradientUnits="userSpaceOnUse" xlink:href="#id82" x1="17225.6" y1="-21498.4" x2="17225.6" y2="-26979.5">
  </linearGradient>
  <linearGradient id="id99" gradientUnits="userSpaceOnUse" xlink:href="#id82" x1="17225.6" y1="-21498.4" x2="17225.6" y2="-26979.6">
  </linearGradient>
  <linearGradient id="id100" gradientUnits="userSpaceOnUse" xlink:href="#id82" x1="17225.6" y1="-21498.5" x2="17225.6" y2="-26979.6">
  </linearGradient>
  <linearGradient id="id101" gradientUnits="userSpaceOnUse" xlink:href="#id82" x1="17225.7" y1="-21498.4" x2="17225.7" y2="-26979.5">
  </linearGradient>
  <linearGradient id="id102" gradientUnits="userSpaceOnUse" xlink:href="#id82" x1="17225.7" y1="-21498.4" x2="17225.7" y2="-26979.5">
  </linearGradient>
  <linearGradient id="id103" gradientUnits="userSpaceOnUse" xlink:href="#id82" x1="17225.7" y1="-21498.4" x2="17225.7" y2="-26979.6">
  </linearGradient>
 </defs>
<symbol id="Fm1-311-0" viewBox="-4509 -26979 9817 9855">
 <polygon class="fil0" style="mask:url(#id0)" points="-4509,-17124 5308,-17124 -4505,-26979 "/>
</symbol>
<symbol id="Fm1-273-0" viewBox="-4509 -26980 9817 9855">
 <polygon class="fil1" style="mask:url(#id2)" points="-4509,-17125 5308,-17125 -4505,-26980 "/>
</symbol>
<symbol id="Fm1-62-0" viewBox="-4509 -26980 9817 9855">
 <polygon class="fil2" style="mask:url(#id4)" points="-4509,-17125 5308,-17125 -4505,-26980 "/>
</symbol>
<symbol id="Fm2-432-0" viewBox="-4509 -26980 8513 8548">
 <polygon class="fil3" style="mask:url(#id6)" points="-4509,-26980 4004,-18455 -4509,-18431 "/>
</symbol>
<symbol id="Fm0-305-0" viewBox="14496 -26979 5458 5481">
 <polygon class="fil4" style="mask:url(#id8)" points="14496,-26979 19955,-21513 14497,-21497 "/>
</symbol>
<symbol id="Fm1-293-0" viewBox="-4509 -26980 9817 9855">
 <polygon class="fil5" style="mask:url(#id10)" points="-4509,-17125 5308,-17125 -4505,-26980 "/>
</symbol>
<symbol id="Fm0-160-0" viewBox="14496 -26980 5458 5481">
 <polygon class="fil6" style="mask:url(#id12)" points="14496,-26980 19955,-21514 14497,-21498 "/>
</symbol>
<symbol id="Fm1-46-0" viewBox="-4509 -26980 9817 9855">
 <polygon class="fil7" style="mask:url(#id14)" points="-4505,-26980 5308,-17125 -4509,-17125 "/>
</symbol>
<symbol id="Fm1-14-0" viewBox="-4509 -26980 9817 9855">
 <polygon class="fil8" style="mask:url(#id16)" points="-4505,-26980 5308,-17125 -4509,-17125 "/>
</symbol>
<symbol id="Fm1-254-0" viewBox="-4509 -26980 9817 9855">
 <polygon class="fil7" style="mask:url(#id18)" points="-4505,-26980 5308,-17125 -4509,-17125 "/>
</symbol>
<symbol id="Fm2-275-0" viewBox="28882 -6529 1490 1490">
 <polygon class="fil9" points="28882,-5040 30372,-5040 30372,-6529 28882,-6529 "/>
</symbol>
<symbol id="Fm2-256-0" viewBox="24189 -14900 4056 1058">
 <polygon class="fil10" points="25133,-14071 25181,-14071 25181,-13845 25133,-13845 "/>
 <path class="fil10" d="M25440 -13845l-61 0 -99 -171 -1 0c2,30 3,52 3,65l0 107 -43 0 0 -226 61 0 98 170 1 0c-2,-29 -2,-50 -2,-62l0 -107 43 0 0 226z"/>
 <path class="fil10" d="M25631 -13908c0,20 -7,37 -22,48 -15,12 -35,18 -62,18 -24,0 -46,-5 -64,-14l0 -45c15,7 28,12 39,14 11,3 20,4 29,4 11,0 19,-2 24,-6 6,-4 8,-10 8,-18 0,-4 -1,-8 -4,-12 -2,-4 -6,-7 -11,-10 -5,-3 -15,-8 -29,-15 -14,-7 -24,-13 -31,-19 -7,-6 -12,-13 -17,-21 -4,-8 -6,-17 -6,-28 0,-20 7,-36 20,-47 14,-11 32,-17 56,-17 12,0 23,1 34,4 11,3 22,7 34,12l-16 37c-12,-5 -22,-8 -30,-10 -8,-2 -16,-3 -23,-3 -9,0 -16,2 -21,6 -5,4 -7,10 -7,17 0,4 1,8 3,11 2,3 5,6 9,9 4,3 15,8 30,16 21,10 36,20 44,30 8,10 12,23 12,37z"/>
 <polygon class="fil10" points="25760,-13845 25712,-13845 25712,-14032 25651,-14032 25651,-14071 25822,-14071 25822,-14032 25760,-14032 "/>
 <polygon class="fil10" points="25857,-14071 25905,-14071 25905,-13845 25857,-13845 "/>
 <polygon class="fil10" points="26050,-13845 26002,-13845 26002,-14032 25940,-14032 25940,-14071 26112,-14071 26112,-14032 26050,-14032 "/>
 <path class="fil10" d="M26332 -14071l0 146c0,17 -4,31 -11,44 -8,13 -18,22 -33,29 -14,7 -31,10 -50,10 -29,0 -52,-7 -68,-22 -16,-15 -24,-35 -24,-61l0 -146 48 0 0 139c0,17 3,30 11,38 7,8 19,12 35,12 16,0 27,-4 34,-12 7,-8 11,-21 11,-39l0 -138 48 0z"/>
 <polygon class="fil10" points="26475,-13845 26427,-13845 26427,-14032 26365,-14032 26365,-14071 26537,-14071 26537,-14032 26475,-14032 "/>
 <path class="fil10" d="M26612 -13959c0,25 5,44 14,57 10,13 24,19 43,19 38,0 58,-25 58,-76 0,-51 -19,-76 -57,-76 -19,0 -34,6 -43,19 -10,13 -15,32 -15,57zm165 0c0,38 -9,66 -28,86 -19,20 -45,30 -80,30 -35,0 -61,-10 -80,-30 -19,-20 -28,-49 -28,-87 0,-38 9,-66 28,-86 19,-20 45,-30 80,-30 35,0 62,10 80,30 18,20 28,49 28,86z"/>
 <polygon class="fil10" points="26956,-13845 26908,-13845 26908,-14071 27038,-14071 27038,-14032 26956,-14032 26956,-13974 27033,-13974 27033,-13935 26956,-13935 "/>
 <polygon class="fil10" points="27214,-13845 27083,-13845 27083,-14071 27214,-14071 27214,-14032 27132,-14032 27132,-13983 27208,-13983 27208,-13943 27132,-13943 27132,-13885 27214,-13885 "/>
 <path class="fil10" d="M27400 -13959c0,-49 -22,-73 -65,-73l-26 0 0 147 21 0c46,0 69,-25 69,-75zm50 -1c0,37 -11,66 -32,86 -21,20 -52,30 -92,30l-64 0 0 -226 71 0c37,0 66,10 86,29 20,20 31,47 31,82z"/>
 <polygon class="fil10" points="27628,-13845 27497,-13845 27497,-14071 27628,-14071 27628,-14032 27545,-14032 27545,-13983 27622,-13983 27622,-13943 27545,-13943 27545,-13885 27628,-13885 "/>
 <path class="fil10" d="M27723 -13971l15 0c15,0 26,-3 34,-8 7,-5 11,-13 11,-24 0,-11 -4,-18 -11,-23 -7,-5 -19,-7 -34,-7l-15 0 0 61zm0 39l0 87 -48 0 0 -226 66 0c31,0 54,6 68,17 15,11 22,28 22,51 0,13 -4,25 -11,36 -7,10 -18,19 -31,24 34,51 56,84 67,99l-53 0 -54 -87 -26 0z"/>
 <path class="fil10" d="M27996 -13939c-15,-49 -24,-76 -26,-83 -2,-6 -3,-12 -4,-15 -3,13 -13,46 -29,98l59 0zm28 94l-16 -54 -83 0 -16 54 -52 0 80 -227 59 0 80 227 -52 0z"/>
 <polygon class="fil10" points="28105,-13845 28105,-14071 28153,-14071 28153,-13885 28245,-13885 28245,-13845 "/>
 <path class="fil11" d="M24701 -14683c0,12 -10,22 -22,22l-183 0c-12,0 -22,-10 -22,-22l0 -183c0,-12 10,-22 22,-22l183 0c12,0 22,10 22,22l0 183z"/>
 <path class="fil11" d="M24974 -14683c0,12 -10,22 -22,22l-183 0c-12,0 -22,-10 -22,-22l0 -183c0,-12 10,-22 22,-22l183 0c12,0 22,10 22,22l0 183z"/>
 <path class="fil11" d="M24974 -14137c0,12 -10,22 -22,22l-183 0c-12,0 -22,-10 -22,-22l0 -183c0,-12 10,-22 22,-22l183 0c12,0 22,10 22,22l0 183z"/>
 <path class="fil11" d="M24428 -14411c0,12 -10,22 -22,22l-183 0c-12,0 -22,-10 -22,-22l0 -183c0,-12 10,-22 22,-22l183 0c12,0 22,10 22,22l0 183z"/>
 <path class="fil11" d="M24701 -14411c0,12 -10,22 -22,22l-183 0c-12,0 -22,-10 -22,-22l0 -183c0,-12 10,-22 22,-22l183 0c12,0 22,10 22,22l0 183z"/>
 <path class="fil11" d="M24428 -14137c0,12 -10,22 -22,22l-183 0c-12,0 -22,-10 -22,-22l0 -183c0,-12 10,-22 22,-22l183 0c12,0 22,10 22,22l0 183z"/>
 <path class="fil11" d="M24701 -14137c0,12 -10,22 -22,22l-183 0c-12,0 -22,-10 -22,-22l0 -183c0,-12 10,-22 22,-22l183 0c12,0 22,10 22,22l0 183z"/>
 <path class="fil11" d="M24428 -13864c0,12 -10,22 -22,22l-183 0c-12,0 -22,-10 -22,-22l0 -183c0,-12 10,-22 22,-22l183 0c12,0 22,10 22,22l0 183z"/>
 <path class="fil11" d="M24701 -13864c0,12 -10,22 -22,22l-183 0c-12,0 -22,-10 -22,-22l0 -183c0,-12 10,-22 22,-22l183 0c12,0 22,10 22,22l0 183z"/>
 <path class="fil12" d="M24439 -14775c0,69 -56,125 -125,125 -69,0 -125,-56 -125,-125 0,-69 56,-125 125,-125 69,0 125,56 125,125z"/>
</symbol>
<symbol id="Fm0-248-0" viewBox="14496 -26980 5458 5481">
 <polygon class="fil6" style="mask:url(#id20)" points="14496,-26980 19955,-21514 14497,-21498 "/>
</symbol>
<symbol id="Fm0-208-0" viewBox="14496 -26980 5458 5481">
 <polygon class="fil6" style="mask:url(#id22)" points="14496,-26980 19955,-21514 14497,-21498 "/>
</symbol>
<symbol id="Fm0-24-0" viewBox="14496 -26980 5458 5481">
 <polygon class="fil6" style="mask:url(#id24)" points="14496,-26980 19955,-21514 14497,-21498 "/>
</symbol>
<symbol id="Fm1-150-0" viewBox="-4509 -26980 9817 9855">
 <polygon class="fil7" style="mask:url(#id26)" points="-4505,-26980 5308,-17125 -4509,-17125 "/>
</symbol>
<symbol id="Fm0-56-0" viewBox="14496 -26980 5458 5481">
 <polygon class="fil13" style="mask:url(#id28)" points="14496,-26980 19955,-21514 14497,-21498 "/>
</symbol>
<symbol id="Fm0-192-0" viewBox="14496 -26980 5458 5481">
 <polygon class="fil6" style="mask:url(#id30)" points="14496,-26980 19955,-21514 14497,-21498 "/>
</symbol>
<symbol id="Fm0-144-0" viewBox="14496 -26980 5458 5481">
 <polygon class="fil6" style="mask:url(#id32)" points="14496,-26980 19955,-21514 14497,-21498 "/>
</symbol>
<symbol id="Fm1-94-0" viewBox="-4509 -26980 9817 9855">
 <polygon class="fil1" style="mask:url(#id34)" points="-4509,-17125 5308,-17125 -4505,-26980 "/>
</symbol>
<symbol id="Fm0-40-0" viewBox="14496 -26980 5458 5481">
 <polygon class="fil6" style="mask:url(#id36)" points="14496,-26980 19955,-21514 14497,-21498 "/>
</symbol>
<symbol id="Fm0-287-0" viewBox="14496 -26980 5458 5481">
 <polygon class="fil14" style="mask:url(#id38)" points="14496,-26980 19955,-21514 14496,-21498 "/>
</symbol>
<symbol id="Fm0-72-0" viewBox="14496 -26980 5458 5481">
 <polygon class="fil6" style="mask:url(#id40)" points="14496,-26980 19955,-21514 14497,-21498 "/>
</symbol>
<symbol id="Fm1-30-0" viewBox="-4509 -26980 9817 9855">
 <polygon class="fil7" style="mask:url(#id42)" points="-4505,-26980 5308,-17125 -4509,-17125 "/>
</symbol>
<symbol id="Fm0-321-0" viewBox="-4509 -26980 9817 9855">
 <polygon class="fil15" style="mask:url(#id44)" points="-4505,-26980 5308,-17125 -4509,-17125 "/>
</symbol>
<symbol id="Fm1-182-0" viewBox="-4509 -26980 9817 9855">
 <polygon class="fil16" style="mask:url(#id46)" points="-4505,-26980 5308,-17125 -4509,-17125 "/>
</symbol>
<symbol id="Fm0-8-0" viewBox="14496 -26980 5459 5481">
 <polygon class="fil17" style="mask:url(#id48)" points="14496,-26980 19955,-21514 14497,-21498 "/>
</symbol>
<symbol id="Fm1-198-0" viewBox="-4509 -26980 9817 9855">
 <polygon class="fil7" style="mask:url(#id50)" points="-4505,-26980 5308,-17125 -4509,-17125 "/>
</symbol>
<symbol id="Fm0-116-0" viewBox="14496 -26980 5458 5481">
 <polygon class="fil6" style="mask:url(#id52)" points="14496,-26980 19955,-21514 14497,-21498 "/>
</symbol>
<symbol id="Fm1-110-0" viewBox="-4509 -26980 9817 9855">
 <polygon class="fil16" style="mask:url(#id54)" points="-4505,-26980 5308,-17125 -4509,-17125 "/>
</symbol>
<symbol id="Fm3-277-0" viewBox="33182 -5871 1491 485">
 <polygon class="fil18" points="34674,-5871 33937,-5442 33182,-5871 33919,-5386 33919,-5386 "/>
</symbol>
<symbol id="Fm0-176-0" viewBox="14496 -26980 5458 5481">
 <polygon class="fil19" style="mask:url(#id56)" points="14496,-26980 19955,-21514 14497,-21498 "/>
</symbol>
<symbol id="Fm1-166-0" viewBox="-4509 -26980 9817 9855">
 <polygon class="fil7" style="mask:url(#id58)" points="-4505,-26980 5308,-17125 -4509,-17125 "/>
</symbol>
<symbol id="Fm0-132-0" viewBox="14496 -26980 5458 5481">
 <polygon class="fil20" style="mask:url(#id60)" points="14496,-26980 19955,-21514 14497,-21498 "/>
</symbol>
<symbol id="Fm1-78-0" viewBox="-4509 -26980 9817 9855">
 <polygon class="fil21" style="mask:url(#id62)" points="-4509,-17125 5308,-17125 -4505,-26980 "/>
</symbol>
<symbol id="Fm1-214-0" viewBox="-4509 -26980 9817 9854">
 <polygon class="fil22" style="mask:url(#id64)" points="-4509,-17125 5308,-17125 -4505,-26980 "/>
</symbol>
<symbol id="Fm1-138-0" viewBox="-4509 -26980 9817 9855">
 <polygon class="fil23" style="mask:url(#id66)" points="-4505,-26980 5308,-17125 -4509,-17125 "/>
</symbol>
<symbol id="Fm1-122-0" viewBox="-4509 -26980 9817 9855">
 <polygon class="fil7" style="mask:url(#id68)" points="-4505,-26980 5308,-17125 -4509,-17125 "/>
</symbol>
<symbol id="Fm0-104-0" viewBox="14496 -26980 5458 5481">
 <polygon class="fil19" style="mask:url(#id70)" points="14496,-26980 19955,-21514 14497,-21498 "/>
</symbol>
<symbol id="Fm1-426-0" viewBox="14496 -12900 5551 5573">
 <polygon class="fil24" style="mask:url(#id72)" points="14497,-12900 20046,-7354 14496,-7328 "/>
</symbol>
<symbol id="Fm0-420-0" viewBox="14495 -26980 5459 5481">
 <polygon class="fil25" style="mask:url(#id74)" points="14495,-26980 19954,-21514 14496,-21498 "/>
</symbol>
<symbol id="Fm0-88-0" viewBox="14496 -26980 5458 5481">
 <polygon class="fil26" style="mask:url(#id76)" points="14496,-26980 19955,-21514 14497,-21498 "/>
</symbol>
<symbol id="Fm1-238-0" viewBox="-4509 -26980 9817 9855">
 <polygon class="fil1" style="mask:url(#id78)" points="-4509,-17125 5308,-17125 -4505,-26980 "/>
</symbol>
<symbol id="Fm0-339-0" viewBox="14496 -26980 5458 5481">
 <polygon class="fil26" style="mask:url(#id80)" points="14496,-26980 19955,-21514 14497,-21498 "/>
</symbol>
 <g id="Camada_x0020_1">
  <metadata id="CorelCorpID_0Corel-Layer"/>
  <path class="fil27" d="M4373 812c0,448 -363,811 -812,811 -448,0 -812,-363 -812,-811 0,-448 363,-812 812,-812 448,0 812,363 812,812z"/>
  <path class="fil28" d="M6070 1406c0,79 -64,144 -144,144l-1188 0c-79,0 -144,-64 -144,-144l0 -1189c0,-79 64,-144 144,-144l1188 0c79,0 144,64 144,144l0 1189z"/>
  <path class="fil28" d="M7841 1406c0,79 -64,144 -144,144l-1188 0c-79,0 -144,-64 -144,-144l0 -1189c0,-79 64,-144 144,-144l1188 0c79,0 144,64 144,144l0 1189z"/>
  <path class="fil28" d="M4312 3177c0,79 -64,144 -144,144l-1188 0c-79,0 -144,-64 -144,-144l0 -1188c0,-79 64,-144 144,-144l1188 0c79,0 144,64 144,144l0 1188z"/>
  <path class="fil28" d="M6083 3177c0,79 -64,144 -144,144l-1188 0c-79,0 -144,-64 -144,-144l0 -1188c0,-79 64,-144 144,-144l1188 0c79,0 144,64 144,144l0 1188z"/>
  <path class="fil28" d="M4312 4948c0,79 -64,144 -144,144l-1188 0c-79,0 -144,-64 -144,-144l0 -1188c0,-79 64,-144 144,-144l1188 0c79,0 144,64 144,144l0 1188z"/>
  <path class="fil28" d="M6083 4948c0,79 -64,144 -144,144l-1188 0c-79,0 -144,-64 -144,-144l0 -1188c0,-79 64,-144 144,-144l1188 0c79,0 144,64 144,144l0 1188z"/>
  <path class="fil28" d="M7854 4948c0,79 -64,144 -144,144l-1188 0c-79,0 -144,-64 -144,-144l0 -1188c0,-79 64,-144 144,-144l1188 0c79,0 144,64 144,144l0 1188z"/>
  <path class="fil28" d="M4312 6718c0,79 -64,144 -144,144l-1188 0c-79,0 -144,-64 -144,-144l0 -1188c0,-79 64,-144 144,-144l1188 0c79,0 144,64 144,144l0 1188z"/>
  <path class="fil28" d="M6083 6718c0,79 -64,144 -144,144l-1188 0c-79,0 -144,-64 -144,-144l0 -1188c0,-79 64,-144 144,-144l1188 0c79,0 144,64 144,144l0 1188z"/>
  <polygon class="fil29" points="0,7899 313,7899 313,9373 0,9373 "/>
  <path class="fil29" d="M1997 9373l-398 0 -642 -1115 -9 0c13,197 19,338 19,422l0 694 -280 0 0 -1474 395 0 641 1104 7 0c-10,-192 -15,-327 -15,-406l0 -698 282 0 0 1474z"/>
  <path class="fil29" d="M3245 8964c0,133 -48,238 -144,315 -96,77 -229,115 -401,115 -158,0 -297,-30 -418,-89l0 -290c100,44 184,76 253,94 69,18 132,27 189,27 69,0 121,-13 158,-39 37,-26 55,-65 55,-117 0,-29 -8,-55 -24,-77 -16,-22 -40,-44 -71,-65 -31,-21 -95,-54 -191,-100 -90,-42 -158,-83 -203,-122 -45,-39 -81,-84 -108,-136 -27,-52 -40,-112 -40,-182 0,-130 44,-233 133,-308 89,-75 211,-112 367,-112 77,0 150,9 220,27 70,18 143,44 219,77l-101 243c-79,-32 -144,-55 -195,-68 -52,-13 -102,-19 -152,-19 -59,0 -105,14 -136,41 -32,28 -48,64 -48,108 0,28 6,52 19,72 13,21 33,40 61,59 28,19 94,54 198,103 138,66 233,132 284,198 51,66 77,147 77,244z"/>
  <polygon class="fil29" points="4087,9373 3773,9373 3773,8159 3372,8159 3372,7899 4488,7899 4488,8159 4087,8159 "/>
  <polygon class="fil29" points="4717,7899 5030,7899 5030,9373 4717,9373 "/>
  <polygon class="fil29" points="5974,9373 5661,9373 5661,8159 5260,8159 5260,7899 6375,7899 6375,8159 5974,8159 "/>
  <path class="fil29" d="M7806 7899l0 954c0,109 -24,204 -73,286 -49,82 -119,145 -212,189 -92,44 -201,66 -327,66 -190,0 -337,-49 -443,-146 -105,-97 -158,-230 -158,-399l0 -950 312 0 0 903c0,114 23,197 69,250 46,53 122,80 227,80 102,0 177,-27 223,-80 46,-53 69,-137 69,-252l0 -901 312 0z"/>
  <polygon class="fil29" points="8742,9373 8429,9373 8429,8159 8028,8159 8028,7899 9143,7899 9143,8159 8742,8159 "/>
  <path class="fil29" d="M9635 8634c0,165 31,289 94,372 63,83 156,125 281,125 250,0 375,-166 375,-497 0,-332 -124,-498 -373,-498 -125,0 -219,42 -282,125 -63,84 -95,208 -95,373zm1078 0c0,244 -61,432 -182,563 -121,131 -295,197 -521,197 -226,0 -400,-66 -521,-197 -121,-131 -182,-319 -182,-565 0,-245 61,-433 182,-562 122,-129 296,-194 523,-194 227,0 400,65 521,196 120,130 180,318 180,563z"/>
  <polygon class="fil29" points="1311,11145 1003,11145 1003,9671 1850,9671 1850,9927 1311,9927 1311,10307 1812,10307 1812,10562 1311,10562 "/>
  <polygon class="fil29" points="2993,11145 2143,11145 2143,9671 2993,9671 2993,9927 2456,9927 2456,10251 2956,10251 2956,10507 2456,10507 2456,10887 2993,10887 "/>
  <path class="fil29" d="M4204 10402c0,-317 -140,-475 -420,-475l-167 0 0 960 134 0c302,0 453,-162 453,-485zm325 -8c0,243 -69,429 -208,558 -138,129 -338,194 -599,194l-418 0 0 -1474 464 0c241,0 428,64 562,191 133,127 200,305 200,532z"/>
  <polygon class="fil29" points="5688,11145 4837,11145 4837,9671 5688,9671 5688,9927 5150,9927 5150,10251 5651,10251 5651,10507 5150,10507 5150,10887 5688,10887 "/>
  <path class="fil29" d="M6311 10325l101 0c99,0 172,-16 219,-49 47,-33 71,-85 71,-155 0,-70 -24,-120 -72,-149 -48,-30 -123,-44 -224,-44l-95 0 0 398zm0 254l0 566 -313 0 0 -1474 430 0c201,0 349,36 446,109 96,73 145,184 145,332 0,87 -24,164 -72,231 -48,68 -116,121 -203,159 222,331 367,546 434,642l-348 0 -353 -566 -167 0z"/>
  <path class="fil29" d="M8088 10532c-99,-318 -155,-498 -167,-539 -12,-42 -21,-75 -27,-99 -22,86 -86,299 -191,638l385 0zm182 613l-107 -351 -538 0 -107 351 -337 0 521 -1481 383 0 523 1481 -338 0z"/>
  <polygon class="fil29" points="8798,11145 8798,9671 9111,9671 9111,10887 9710,10887 9710,11145 "/>
 </g>
</svg>
